<svg size="153" viewBox="0 0 153 39" fill="none" xmlns="http://www.w3.org/2000/svg" class="sc-gUAEMC jOIBDh"><path d="M1.2845 5.07328L5.79895 4.0155C6.23339 3.92106 6.66784 4.24217 6.66784 4.6955V20.3166C6.66784 20.6944 6.34673 21.0155 5.96895 21.0155H1.4545C1.07673 21.0155 0.755615 20.6944 0.755615 20.3166V5.75328C0.755615 5.43217 0.982282 5.14884 1.2845 5.07328Z" fill="#00F050"></path><path d="M9.4634 3.14661L13.9778 2.08884C14.4123 1.9755 14.8467 2.3155 14.8467 2.76884V20.3355C14.8467 20.7133 14.5256 21.0344 14.1478 21.0344H9.63339C9.25562 21.0344 8.93451 20.7133 8.93451 20.3355V3.8455C8.93451 3.5055 9.14228 3.22217 9.4634 3.14661Z" fill="#00F050"></path><path d="M17.6045 1.20106L19.8712 0.539946C20.0034 0.502168 20.1356 0.502168 20.2678 0.539946L22.5345 1.20106C22.8367 1.2955 23.0256 1.55995 23.0256 1.86217V20.3166C23.0256 20.6944 22.7234 21.0155 22.3267 21.0155H17.7934C17.4156 21.0155 17.0945 20.7133 17.0945 20.3166V1.86217C17.1134 1.55995 17.3023 1.27661 17.6045 1.20106Z" fill="#00F050"></path><path d="M26.1423 2.06995L30.6567 3.12772C30.9778 3.20328 31.2045 3.48661 31.2045 3.80772V20.2977C31.2045 20.6755 30.8834 20.9966 30.5056 20.9966H25.9912C25.6134 20.9966 25.2923 20.6755 25.2923 20.2977V2.73106C25.2734 2.29661 25.7078 1.9755 26.1423 2.06995Z" fill="#00F050"></path><path d="M31.2045 23.9811V28.4955C31.2045 28.8733 30.8834 29.1944 30.5056 29.1944H16.4145C16.0367 29.1944 15.7156 28.8733 15.7156 28.4955V23.9811C15.7156 23.6033 16.0367 23.2822 16.4145 23.2822H30.5056C30.8834 23.2822 31.2045 23.5844 31.2045 23.9811Z" fill="#00F050"></path><path d="M99.0845 28.4696H100.496V35.2536H99.0778L99.0235 34.2699C98.8245 34.6182 98.5554 34.8986 98.2162 35.1112C97.877 35.3237 97.4767 35.43 97.0154 35.43C96.5179 35.43 96.0498 35.3373 95.6111 35.1519C95.1724 34.9619 94.7857 34.6996 94.451 34.3649C94.1209 34.0302 93.8631 33.6458 93.6776 33.2116C93.4922 32.7729 93.3995 32.3026 93.3995 31.8005C93.3995 31.3166 93.49 30.8621 93.6709 30.4369C93.8518 30.0073 94.1028 29.6319 94.4239 29.3108C94.745 28.9897 95.1159 28.7387 95.5365 28.5577C95.9616 28.3723 96.4161 28.2796 96.9001 28.2796C97.3931 28.2796 97.8272 28.3927 98.2026 28.6188C98.5825 28.8404 98.8969 29.1253 99.1456 29.4736L99.0845 28.4696ZM96.9815 34.0664C97.3795 34.0664 97.7277 33.9692 98.0262 33.7747C98.3247 33.5757 98.5554 33.3089 98.7182 32.9742C98.8856 32.6395 98.9692 32.2686 98.9692 31.8616C98.9692 31.45 98.8856 31.0769 98.7182 30.7422C98.5509 30.4075 98.3179 30.143 98.0194 29.9485C97.7255 29.7495 97.3795 29.65 96.9815 29.65C96.588 29.65 96.2284 29.7495 95.9028 29.9485C95.5772 30.1475 95.3194 30.4143 95.1294 30.749C94.9395 31.0837 94.8445 31.4545 94.8445 31.8616C94.8445 32.2732 94.9417 32.6463 95.1362 32.981C95.3352 33.3111 95.5953 33.5757 95.9164 33.7747C96.242 33.9692 96.5971 34.0664 96.9815 34.0664Z" fill="#FAFAFA"></path><path d="M106.147 33.327L107.409 34.0121C107.101 34.4418 106.71 34.7855 106.235 35.0433C105.765 35.3011 105.254 35.43 104.702 35.43C104.078 35.43 103.508 35.2695 102.992 34.9483C102.481 34.6272 102.072 34.1976 101.764 33.6594C101.461 33.1166 101.31 32.5174 101.31 31.8616C101.31 31.3641 101.398 30.9005 101.574 30.4709C101.751 30.0367 101.993 29.6568 102.3 29.3311C102.612 29.001 102.974 28.7432 103.386 28.5577C103.797 28.3723 104.236 28.2796 104.702 28.2796C105.254 28.2796 105.765 28.4085 106.235 28.6663C106.71 28.9241 107.101 29.2701 107.409 29.7043L106.147 30.3894C105.957 30.1633 105.735 29.9914 105.482 29.8739C105.229 29.7517 104.969 29.6907 104.702 29.6907C104.331 29.6907 103.994 29.7924 103.691 29.996C103.393 30.195 103.155 30.4595 102.979 30.7897C102.807 31.1153 102.721 31.4726 102.721 31.8616C102.721 32.246 102.809 32.6033 102.985 32.9335C103.162 33.2591 103.399 33.5214 103.698 33.7204C104.001 33.9194 104.336 34.0189 104.702 34.0189C104.982 34.0189 105.249 33.9556 105.502 33.829C105.756 33.7023 105.97 33.535 106.147 33.327Z" fill="#FAFAFA"></path><path d="M113.752 28.4696H115.164V35.2536H113.746L113.691 34.2699C113.492 34.6182 113.223 34.8986 112.884 35.1112C112.545 35.3237 112.145 35.43 111.683 35.43C111.186 35.43 110.718 35.3373 110.279 35.1519C109.84 34.9619 109.454 34.6996 109.119 34.3649C108.789 34.0302 108.531 33.6458 108.346 33.2116C108.16 32.7729 108.067 32.3026 108.067 31.8005C108.067 31.3166 108.158 30.8621 108.339 30.4369C108.52 30.0073 108.771 29.6319 109.092 29.3108C109.413 28.9897 109.784 28.7387 110.204 28.5577C110.63 28.3723 111.084 28.2796 111.568 28.2796C112.061 28.2796 112.495 28.3927 112.871 28.6188C113.25 28.8404 113.565 29.1253 113.814 29.4736L113.752 28.4696ZM111.649 34.0664C112.047 34.0664 112.396 33.9692 112.694 33.7747C112.993 33.5757 113.223 33.3089 113.386 32.9742C113.553 32.6395 113.637 32.2686 113.637 31.8616C113.637 31.45 113.553 31.0769 113.386 30.7422C113.219 30.4075 112.986 30.143 112.687 29.9485C112.393 29.7495 112.047 29.65 111.649 29.65C111.256 29.65 110.896 29.7495 110.571 29.9485C110.245 30.1475 109.987 30.4143 109.797 30.749C109.607 31.0837 109.512 31.4545 109.512 31.8616C109.512 32.2732 109.61 32.6463 109.804 32.981C110.003 33.3111 110.263 33.5757 110.584 33.7747C110.91 33.9692 111.265 34.0664 111.649 34.0664Z" fill="#FAFAFA"></path><path d="M121.67 25.0775H123.081V35.2536H121.67V34.2564C121.448 34.6091 121.159 34.8941 120.801 35.1112C120.444 35.3237 120.026 35.43 119.546 35.43C119.053 35.43 118.592 35.3373 118.162 35.1519C117.733 34.9664 117.353 34.7109 117.022 34.3853C116.697 34.0551 116.441 33.6752 116.256 33.2455C116.07 32.8159 115.978 32.3546 115.978 31.8616C115.978 31.3686 116.07 30.9073 116.256 30.4776C116.441 30.0435 116.697 29.6635 117.022 29.3379C117.353 29.0078 117.733 28.75 118.162 28.5645C118.592 28.3791 119.053 28.2864 119.546 28.2864C120.026 28.2864 120.444 28.3949 120.801 28.612C121.159 28.8246 121.448 29.105 121.67 29.4532V25.0775ZM119.56 34.0664C119.958 34.0664 120.306 33.9692 120.604 33.7747C120.903 33.5757 121.134 33.3089 121.296 32.9742C121.464 32.6395 121.547 32.2686 121.547 31.8616C121.547 31.45 121.464 31.0769 121.296 30.7422C121.129 30.4075 120.896 30.143 120.598 29.9485C120.304 29.7495 119.958 29.65 119.56 29.65C119.166 29.65 118.807 29.7495 118.481 29.9485C118.16 30.1475 117.902 30.4143 117.708 30.749C117.518 31.0837 117.423 31.4545 117.423 31.8616C117.423 32.2732 117.52 32.6463 117.714 32.981C117.913 33.3111 118.174 33.5757 118.495 33.7747C118.82 33.9692 119.175 34.0664 119.56 34.0664Z" fill="#FAFAFA"></path><path d="M127.598 35.43C126.974 35.43 126.404 35.2695 125.889 34.9483C125.377 34.6272 124.968 34.1976 124.661 33.6594C124.358 33.1166 124.206 32.5174 124.206 31.8616C124.206 31.3641 124.294 30.9005 124.471 30.4709C124.647 30.0367 124.889 29.6568 125.197 29.3311C125.509 29.001 125.87 28.7432 126.282 28.5577C126.694 28.3723 127.132 28.2796 127.598 28.2796C128.118 28.2796 128.595 28.3881 129.03 28.6052C129.464 28.8178 129.835 29.114 130.142 29.4939C130.45 29.8693 130.676 30.3035 130.821 30.7965C130.965 31.2849 131.008 31.8051 130.949 32.3568H125.719C125.778 32.6689 125.891 32.9516 126.058 33.2048C126.23 33.4536 126.447 33.6503 126.709 33.7951C126.976 33.9398 127.272 34.0144 127.598 34.0189C127.942 34.0189 128.254 33.933 128.534 33.7611C128.819 33.5893 129.052 33.3518 129.233 33.0488L130.665 33.3812C130.393 33.9827 129.984 34.4757 129.437 34.8602C128.889 35.2401 128.277 35.43 127.598 35.43ZM125.671 31.2782H129.525C129.48 30.9525 129.364 30.6586 129.179 30.3962C128.998 30.1294 128.77 29.9191 128.494 29.7653C128.222 29.607 127.924 29.5279 127.598 29.5279C127.277 29.5279 126.979 29.6048 126.703 29.7585C126.431 29.9123 126.205 30.1226 126.024 30.3894C125.848 30.6518 125.73 30.948 125.671 31.2782Z" fill="#FAFAFA"></path><path d="M132.073 35.2536V28.4696H133.484V29.1887C133.719 28.9083 134.006 28.6866 134.346 28.5238C134.689 28.361 135.06 28.2796 135.458 28.2796C135.942 28.2796 136.388 28.3972 136.795 28.6324C137.202 28.863 137.525 29.1706 137.765 29.555C138.005 29.1706 138.323 28.863 138.721 28.6324C139.124 28.3972 139.567 28.2796 140.051 28.2796C140.553 28.2796 141.01 28.4017 141.421 28.6459C141.833 28.8902 142.161 29.2181 142.405 29.6296C142.649 30.0412 142.771 30.498 142.771 31V35.2536H141.36V31.3596C141.36 31.0611 141.288 30.7874 141.143 30.5387C140.999 30.2899 140.804 30.0887 140.56 29.9349C140.316 29.7811 140.044 29.7043 139.746 29.7043C139.447 29.7043 139.176 29.7766 138.932 29.9213C138.687 30.0661 138.493 30.2628 138.348 30.5116C138.204 30.7603 138.131 31.043 138.131 31.3596V35.2536H136.72V31.3596C136.72 31.043 136.648 30.7603 136.503 30.5116C136.358 30.2628 136.162 30.0661 135.913 29.9213C135.669 29.7766 135.397 29.7043 135.099 29.7043C134.805 29.7043 134.533 29.7811 134.285 29.9349C134.04 30.0887 133.846 30.2899 133.701 30.5387C133.556 30.7874 133.484 31.0611 133.484 31.3596V35.2536H132.073Z" fill="#FAFAFA"></path><path d="M148.486 28.4696H149.992L146.275 38.6457H144.775L146.003 35.2536L143.568 28.4696H145.108L146.709 33.3202L148.486 28.4696Z" fill="#FAFAFA"></path><path d="M151.583 21.0155H146.956C146.597 21.0155 146.313 20.7322 146.313 20.3733V15.7455C146.313 15.3866 146.597 15.1033 146.956 15.1033H151.583C151.942 15.1033 152.226 15.3866 152.226 15.7455V20.3733C152.226 20.7322 151.942 21.0155 151.583 21.0155Z" fill="#00F050"></path><path d="M116.41 1.45605C115.232 0.747068 113.907 0.392578 112.431 0.392578C111.066 0.392578 109.816 0.709754 108.675 1.3441C107.535 1.97846 106.601 2.8199 105.892 3.86472C105.202 2.8199 104.266 1.97846 103.109 1.3441C101.969 0.709754 100.699 0.392578 99.335 0.392578C98.3271 0.392578 97.3733 0.579152 96.4774 0.933642C95.5815 1.28813 94.777 1.79188 94.105 2.44676V1.43739C94.105 1.10156 93.8437 0.840356 93.5077 0.840356H89.1363C88.8003 0.840356 88.539 1.10156 88.539 1.43739V20.522H88.5204C88.5204 20.8579 88.7817 21.1191 89.1176 21.1191H93.4891C93.825 21.1191 94.0864 20.8579 94.0864 20.522V9.82202C94.0864 9.1317 94.2543 8.49548 94.5903 7.9171C94.945 7.33872 95.3929 6.89094 95.9548 6.55325C96.5334 6.19876 97.1699 6.03084 97.8605 6.03084C98.5511 6.03084 99.1876 6.19876 99.7662 6.53459C100.345 6.87042 100.793 7.3182 101.131 7.89844C101.467 8.45816 101.635 9.09438 101.635 9.82202V20.522C101.635 20.8579 101.896 21.1191 102.232 21.1191H106.603C106.939 21.1191 107.201 20.8579 107.201 20.522V9.82202C107.201 9.11304 107.369 8.47682 107.705 7.89844C108.059 7.32006 108.507 6.87229 109.069 6.53459C109.648 6.19876 110.284 6.03084 110.993 6.03084C111.703 6.03084 112.321 6.19876 112.899 6.55325C113.459 6.88908 113.907 7.33686 114.245 7.9171C114.6 8.47682 114.768 9.11117 114.768 9.82202V20.522C114.768 20.8579 115.029 21.1191 115.365 21.1191H119.736C120.072 21.1191 120.334 20.8579 120.334 20.522V8.29211C120.334 6.83497 119.979 5.5103 119.268 4.31436C118.558 3.11842 117.605 2.16689 116.41 1.45791V1.45605Z" fill="#FAFAFA"></path><path d="M86.2413 1.40008C86.2413 1.06424 85.98 0.80304 85.644 0.80304H80.9926C80.6753 0.840355 80.414 1.10156 80.414 1.43739V1.8945C78.82 0.941105 76.9572 0.392578 74.9637 0.392578C69.0935 0.392578 64.3338 5.15021 64.3338 11.018C64.3338 16.8857 69.0935 21.6433 74.9637 21.6433C76.9572 21.6433 78.82 21.0948 80.414 20.1414V20.5052C80.414 20.8411 80.6753 21.1023 81.0113 21.1023H85.6627C85.9987 21.1023 86.26 20.8411 86.26 20.5052V3.60538C86.26 3.53075 86.26 3.43746 86.2413 3.36283V1.40008ZM74.9619 15.9566C72.233 15.9566 70.0212 13.7457 70.0212 11.018C70.0212 8.29025 72.233 6.07935 74.9619 6.07935C77.6907 6.07935 79.9026 8.29025 79.9026 11.018C79.9026 13.7457 77.6907 15.9566 74.9619 15.9566Z" fill="#FAFAFA"></path><path d="M143.63 1.40008C143.63 1.06424 143.368 0.80304 143.032 0.80304H138.381C138.064 0.840355 137.802 1.10156 137.802 1.43739V1.8945C136.208 0.941105 134.346 0.392578 132.352 0.392578C126.482 0.392578 121.722 5.15021 121.722 11.018C121.722 16.8857 126.482 21.6433 132.352 21.6433C134.346 21.6433 136.208 21.0948 137.802 20.1414V20.5052C137.802 20.8411 138.064 21.1023 138.4 21.1023H143.051C143.387 21.1023 143.648 20.8411 143.648 20.5052V3.60538C143.648 3.53075 143.648 3.43746 143.63 3.36283V1.40008ZM132.35 15.9566C129.621 15.9566 127.41 13.7457 127.41 11.018C127.41 8.29025 129.621 6.07935 132.35 6.07935C135.079 6.07935 137.291 8.29025 137.291 11.018C137.291 13.7457 135.079 15.9566 132.35 15.9566Z" fill="#FAFAFA"></path><path d="M62.3665 0.840356H57.9951C57.6591 0.840356 57.3978 1.10156 57.3978 1.43739C57.3978 1.49336 57.3978 1.53068 57.3791 1.62397V2.04376C55.731 1.00081 53.7804 0.392578 51.6862 0.392578C45.8159 0.392578 41.0563 5.15021 41.0563 11.018C41.0563 16.8857 45.8159 21.6433 51.6862 21.6433C53.7804 21.6433 55.731 21.0351 57.3773 19.9903V21.662C57.3773 22.3523 57.2279 22.9699 56.9106 23.4923C56.5933 24.0147 56.1827 24.4438 55.6395 24.8002C55.0982 25.1547 54.5009 25.4159 53.8084 25.5838C53.1365 25.7517 52.444 25.845 51.6974 25.845H51.4361C50.8575 25.8263 50.277 25.6771 49.717 25.4532C49.0824 25.2106 48.5224 24.8375 48.0166 24.3505C47.9046 24.2199 47.7926 24.108 47.6806 23.9774C47.6433 23.9214 47.6059 23.8841 47.5686 23.8468C47.4006 23.6229 47.2513 23.399 47.1207 23.1565C47.102 23.1378 47.102 23.1191 47.0833 23.1005C46.99 22.8766 46.7473 22.7087 46.4674 22.746C46.2061 22.7646 45.9074 22.802 45.6274 22.8393C44.3003 23.0072 42.8258 23.1751 41.8906 23.3057C41.592 23.343 41.3867 23.6042 41.4427 23.9027C41.5173 24.2759 41.648 24.6677 41.76 24.9102C42.3199 26.1808 43.1057 27.3003 44.1137 28.291C45.1216 29.2611 46.2807 30.028 47.5892 30.5877C48.7296 31.0914 49.9055 31.3713 51.1393 31.4273C51.3259 31.4459 51.5126 31.4459 51.6993 31.4459C53.213 31.4459 54.6316 31.2034 55.9774 30.7556C57.3231 30.2892 58.5364 29.6343 59.5648 28.7761C60.6101 27.9178 61.4519 26.8898 62.0492 25.6752C62.6651 24.4811 62.9638 23.1359 62.9638 21.6415V1.43739C62.9638 1.10156 62.7025 0.840356 62.3665 0.840356ZM51.6862 15.9566C48.9573 15.9566 46.7455 13.7457 46.7455 11.018C46.7455 8.29025 48.9573 6.07935 51.6862 6.07935C54.4151 6.07935 56.6269 8.29025 56.6269 11.018C56.6269 13.7457 54.4151 15.9566 51.6862 15.9566Z" fill="#FAFAFA"></path></svg>